# xmcd CD database file
# Copyright (C) 1993-1998 Ti Kan
#
# Track frame offsets:
# 150
# 16307
# 35382
# 63700
# 78125
# 102220
# 116920
# 135765
# 150290
# 175815
#
# Disc length: 2633 seconds
# Revision: 0
# Processed by: cddbd v1.4b41PL1 Copyright (c) Steve Scherf et al.
# Submitted via: CDSpectrumPro v3.2.328
#
DISCID=6e0a470a
DTITLE=Ponder, Harp, and Jannings - Unmerited Favor
DYEAR=1900
DGENRE=
TTITLE0=It's Beginning to Rain
TTITLE1=Crimson River
TTITLE2=Unmerited Favor
TTITLE3=Drawin' From The Well
TTITLE4=Daystar
TTITLE5=Close To The Well
TTITLE6=There Is A Savior
TTITLE7=You Can't Stand On Promises
TTITLE8=Saved, Delivered And Healed
TTITLE9=Unfailing Love
EXTD=
EXTT0=
EXTT1=
EXTT2=
EXTT3=
EXTT4=
EXTT5=
EXTT6=
EXTT7=
EXTT8=
EXTT9=
PLAYORDER=
